<?xml version="1.0" encoding="utf-8"?>
<!DOCTYPE svg PUBLIC "-//W3C//DTD SVG 1.0//EN" "http://www.w3.org/TR/2001/REC-SVG-20010904/DTD/svg10.dtd">
<svg version="1.0" xmlns="http://www.w3.org/2000/svg" width="1024px" height="1024px" viewBox="0 0 1024 1024" preserveAspectRatio="xMidYMid meet">
 <g fill="#000000">
  <path d="M290.9 714.2 c-3.5 -0.9 -5.9 -2.7 -7.5 -5.7 -1.7 -3.2 -1.7 -3.7 0.1 -11.4 1 -4.4 2.2 -7.8 2.6 -7.5 0.5 0.3 0.6 -0.1 0.4 -0.8 -0.3 -0.8 1 -7.6 2.9 -15.3 1.9 -7.7 4.7 -20.1 6.2 -27.5 1.6 -7.4 3.1 -13.6 3.5 -13.8 0.5 -0.2 0.5 -1 0.2 -1.8 -0.3 -0.9 0.2 -1.4 1.6 -1.4 2.7 0 2.7 1.5 0.1 15 -2.2 11.2 -3.1 15.4 -8.1 35 -1.7 6.9 -3.8 15.6 -4.7 19.4 l-1.6 6.9 2.8 2.4 c2.7 2.3 3.3 2.4 10.7 1.7 7.7 -0.6 7.9 -0.6 7.9 1.5 0 1.2 -0.4 1.9 -1 1.6 -0.5 -0.3 -1.8 -0.1 -2.8 0.4 -2 1 -11 1.9 -13.3 1.3z"/>
  <path d="M341 705 c1.3 -0.8 1.2 -1 -0.3 -1 -1 0 -1.5 -0.4 -1.2 -1 0.3 -0.5 1.9 -1 3.6 -1 3.5 0 4 2.5 0.7 3.4 -3.4 0.9 -4.5 0.7 -2.8 -0.4z"/>
  <path d="M497 701.2 c0 -0.4 -1.6 -0.6 -3.5 -0.4 -5.7 0.7 -10.1 -0.5 -10.2 -2.8 -0.2 -2.2 1.4 -2.4 10.5 -1.4 4.6 0.6 5.2 0.9 5.2 3 0 1.3 -0.4 2.4 -1 2.4 -0.5 0 -1 -0.4 -1 -0.8z"/>
  <path d="M551 699.6 c0 -2.5 0 -2.5 22.5 -4.2 3.9 -0.3 8.5 -1.2 10.3 -2 1.7 -0.8 7 -1.8 11.7 -2.1 7.7 -0.5 8.5 -0.4 8.5 1.2 0 1.2 -0.6 1.6 -2 1.2 -1.1 -0.3 -1.8 -0.1 -1.5 0.3 0.7 1.1 -13.1 3.4 -14.6 2.4 -0.7 -0.4 -0.9 -0.3 -0.6 0.3 0.8 1.3 -15.4 3.7 -25.4 3.8 -4.3 0 -7.2 0.3 -6.5 0.7 0.7 0.5 0.5 0.8 -0.6 0.8 -1.2 0 -1.8 -0.8 -1.8 -2.4z"/>
  <path d="M304.7 695.3 c-1.6 -1.6 -0.4 -8.9 3.4 -20.4 5.2 -15.9 10.3 -35.9 12.9 -50 l2 -11.2 -6 -5.4 c-11.8 -10.7 -26 -29.2 -35.3 -46.1 -9.4 -17 -16.9 -39.3 -19.8 -59.2 -1.6 -11.3 -1.7 -46.3 0 -56.5 6.6 -41.4 24.9 -77 56.5 -109.2 9.2 -9.5 10.3 -10.3 13.8 -10.3 3.6 0 3.8 0.1 3.8 3.3 0 2.8 -1.4 4.6 -9.6 12.7 -5.3 5.2 -12.2 12.8 -15.5 16.8 -5.5 6.9 -18.9 26.4 -18.9 27.6 0 0.4 -1.1 2.4 -2.5 4.6 -3.5 5.5 -12.7 28.8 -15.4 38.7 -12.4 46.4 -5.3 92.5 20.7 134.7 8 13 13.5 19.9 26.1 32.6 l10.4 10.5 -0.6 8 c-0.7 10.5 -6.6 37.3 -12.1 55.3 -2.4 7.8 -4 14.2 -3.7 14.2 0.3 0 3.1 -0.7 6.1 -1.5 3 -0.8 7.9 -1.5 10.8 -1.5 l5.2 0 0 3.3 0 3.3 -13.2 3.2 c-13.2 3.2 -17.8 3.8 -19.1 2.5z"/>
  <path d="M432 688.9 c0 -0.5 -0.4 -0.8 -0.8 -0.5 -1.4 0.8 -8.2 -1.6 -7.5 -2.7 0.3 -0.6 0.1 -0.7 -0.5 -0.4 -1.6 1.1 -4.1 -0.3 -3.5 -1.9 0.6 -1.7 4.3 -1.7 9.8 0 3.3 1 4 1.6 4.1 3.9 0.1 1.5 -0.3 2.7 -0.7 2.7 -0.5 0 -0.9 -0.5 -0.9 -1.1z"/>
  <path d="M350 679.6 c0 -3.2 0.4 -3.8 3.8 -5.2 2 -0.9 6.3 -1.9 9.5 -2.2 l5.7 -0.4 0 3.5 c0 5 -1.9 6 -14.2 7.4 l-4.8 0.5 0 -3.6z"/>
  <path d="M503.5 679.3 c-33.6 -2.6 -60.5 -8.3 -83.3 -17.4 -4.1 -1.6 -9.1 -2.9 -11.3 -2.9 -3.7 0 -3.9 -0.1 -3.9 -3.3 0 -1.8 0.5 -3.8 1.2 -4.5 2 -2 9.5 -1.4 16.1 1.4 30.7 13 66.1 19.4 108 19.4 l20.7 0 0 3.3 0 3.4 -12.2 0.6 c-11.8 0.7 -27.3 0.7 -35.3 0z"/>
  <path d="M372.2 671.3 c0.3 -3.4 0.8 -4 4.8 -6 2.5 -1.2 6.4 -2.2 8.8 -2.3 4.1 0 4.2 0.1 4.2 3.3 0 2.7 -0.6 3.7 -2.7 4.7 -5.1 2.5 -9.8 4 -12.6 4 -2.6 0 -2.8 -0.2 -2.5 -3.7z"/>
  <path d="M606.2 663.3 c0.3 -3.5 0.5 -3.7 7.2 -6 3.9 -1.2 9.2 -2.3 11.8 -2.3 4.8 0 4.8 0 4.8 3.3 0 3.2 -0.1 3.3 -8.3 6 -4.6 1.5 -10 2.7 -12.1 2.7 -3.7 0 -3.7 0 -3.4 -3.7z"/>
  <path d="M684 658.6 c0 -1.4 0.4 -2.7 0.8 -3 1.7 -1 9.2 -1.8 9.2 -1 0 0.9 -8.1 6.4 -9.4 6.4 -0.3 0 -0.6 -1.1 -0.6 -2.4z"/>
  <path d="M726 623.4 c0 -1.8 2.3 -5.2 7.7 -11.2 4.2 -4.8 8 -8.8 8.5 -9 0.4 -0.2 0.8 -0.7 0.8 -1.2 0 -0.5 2.6 -4.6 5.7 -9.2 7.3 -10.4 9.1 -13.6 15.7 -27.3 7.6 -15.7 10.3 -22.9 13.9 -37.5 2 -7.9 3.7 -13 4.5 -13 0.6 0 1.3 0.8 1.3 1.8 0.1 0.9 0.5 0.4 0.9 -1.3 0.5 -2 0.8 -2.3 0.9 -1 0.2 3.4 -4.7 23.3 -8 32.9 -4.7 13.4 -12.7 29.9 -14.1 29 -0.7 -0.4 -0.8 -0.3 -0.4 0.5 1.3 2 -12.9 24.6 -14.7 23.4 -0.5 -0.3 -0.7 -0.2 -0.4 0.4 0.3 0.5 -0.1 2 -1 3.2 -1.2 1.8 -1.7 2 -2.5 1 -0.7 -1 -0.8 -0.8 -0.4 0.7 0.4 1.4 -0.1 2.7 -1.6 4 -2.2 1.9 -2.3 1.9 -0.8 -0.1 1.4 -1.8 1.4 -1.9 -0.2 -0.6 -1 0.7 -1.5 1.7 -1.2 2.2 0.7 1.3 -9.4 12.9 -11.3 12.9 -0.8 0 -1.1 0.5 -0.8 1 0.3 0.6 -0.1 1 -0.9 1 -1.1 0 -1.6 -0.9 -1.6 -2.6z"/>
  <path d="M300.4 623.5 c0.3 -1 -2.1 -4.4 -7 -9.7 -14.4 -15.7 -32.9 -43.2 -30.2 -45 0.9 -0.5 0.8 -0.8 -0.5 -0.8 -1 0 -1.5 -0.4 -1.2 -1 1 -1.7 5.2 -1.1 6 0.8 3 7.8 17.8 29.1 29.1 41.8 6.3 7 7.4 8.9 7.4 11.8 0 3 -0.4 3.6 -2.1 3.6 -1.5 0 -1.9 -0.5 -1.5 -1.5z"/>
  <path d="M693 619.8 c0 -2.9 1.9 -5.2 14.3 -17.8 25.9 -26.4 40 -50.6 48.2 -82.3 4.7 -18.5 6.2 -36.1 4.7 -53.9 -1.7 -19 -1.9 -17.8 2.7 -17.8 l3.8 0 0.6 6.3 c1.7 16.2 1.8 26.3 0.8 39.7 -3.7 46.7 -21.8 84.4 -56.3 117.5 -10.5 10 -12.4 11.5 -15.4 11.5 -3.2 0 -3.4 -0.2 -3.4 -3.2z"/>
  <path d="M373.2 563.8 c-0.9 -0.9 -1.2 -24.3 -1.2 -99 0 -95.6 0 -97.8 1.9 -98.8 1.3 -0.7 46.4 -1 138.9 -1 131.3 0 137 0.1 138.5 1.8 1.6 1.7 1.7 10 1.7 98.5 0 86.4 -0.2 96.7 -1.6 98.1 -1.4 1.4 -12.5 1.6 -107.4 1.6 -61.3 0 -106.1 -0.4 -106.4 -0.9 -0.3 -0.5 0.2 -1.2 1.2 -1.6 1.5 -0.6 1.4 -0.8 -0.5 -1.6 -1.3 -0.4 -2.3 -1.3 -2.3 -1.9 0 -0.6 0.4 -0.9 0.9 -0.5 0.5 0.3 1.2 0.1 1.5 -0.4 0.4 -0.5 0.1 -1.1 -0.6 -1.4 -0.7 -0.2 -0.4 -0.2 0.7 0.2 1.1 0.3 47.6 0.7 103.4 0.8 74.8 0.3 101.7 0 102.7 -0.8 1.2 -1 1.4 -15.9 1.4 -90.6 0 -59.7 -0.3 -90.1 -1 -91.4 -1.1 -1.9 -3.6 -1.9 -132.9 -1.9 -119.3 0 -131.9 0.2 -132.5 1.6 -0.3 0.9 -0.6 42 -0.6 91.4 0 87.9 0 90 1.9 91 2.5 1.3 18.8 1.3 19.6 0 0.3 -0.5 0.5 -37.2 0.5 -81.5 0 -80.1 0 -80.5 2 -80.5 1.1 0 2 -0.7 2 -1.5 0 -1.4 4.9 -1.5 41 -1.5 36.1 0.1 46.5 0.7 40.3 2.3 -1 0.3 0 0.5 2.2 0.5 2.2 0 3.2 -0.2 2.2 -0.5 -3.8 -1 -0.2 -2.3 6.3 -2.3 6.5 0 10.1 1.3 6.3 2.3 -1 0.3 0 0.5 2.2 0.5 2.2 0 3.2 -0.2 2.2 -0.5 -0.9 -0.2 -1.5 -0.9 -1.2 -1.3 0.8 -1.2 77.2 -1.2 78 -0.1 0.3 0.5 -0.3 1.2 -1.2 1.4 -1 0.3 0.9 0.5 4.2 0.5 3.3 0 5.2 -0.2 4.2 -0.5 -3.4 -0.9 -0.5 -2.3 4.8 -2.3 5.3 0 8.2 1.4 4.8 2.3 -1 0.3 1.4 0.5 5.2 0.5 4.6 0 6.3 -0.2 5 -0.8 -1.7 -0.7 -1.8 -0.9 -0.4 -1.5 0.9 -0.3 3.8 -0.5 6.5 -0.3 l4.9 0.3 0.3 72.7 0.2 72.8 -8.5 -0.1 c-4.7 0 -8.8 -0.5 -9.1 -1 -0.3 -0.5 0.3 -1 1.3 -1 1 -0.1 0.2 -0.5 -1.7 -0.9 l-3.5 -0.7 3.8 -0.2 c2 0 3.7 0.4 3.7 0.9 0 0.6 1.2 1 2.8 0.9 l2.7 -0.1 -2.5 -0.8 c-2 -0.7 -1.6 -0.9 2 -0.7 l4.5 0.2 0.3 -66.9 c0.2 -51.5 0.5 -67.3 1.5 -68.4 0.9 -1.3 0.9 -1.4 0 -0.8 -0.8 0.4 -1.3 0.1 -1.3 -0.8 0 -1.4 -10.7 -1.6 -106.5 -1.6 -84.5 0 -106.5 0.3 -106.6 1.3 0 0.6 -0.1 26.7 -0.1 58 -0.1 51.1 -0.2 56.9 -1.7 57.8 -1.2 0.8 -1.3 1 -0.1 0.6 1.3 -0.4 1.5 1.2 1.4 10.7 -0.1 23.3 -0.4 28.7 -1.4 28.1 -0.6 -0.4 -0.9 0.7 -0.9 2.7 0.1 2.3 0.3 2.6 0.6 1.1 0.2 -1.3 0.8 -2.3 1.4 -2.3 1.2 0 0.4 5.7 -1.1 7.5 -1 1.2 -1 1.5 0.4 1.5 1 0 1.4 0.5 1.1 1 -0.9 1.5 -30.8 1.3 -32.3 -0.2z m106.6 -169.5 c-1 -0.2 -2.6 -0.2 -3.5 0 -1 0.3 -0.2 0.5 1.7 0.5 1.9 0 2.7 -0.2 1.8 -0.5z m44 0 c-1 -0.2 -2.6 -0.2 -3.5 0 -1 0.3 -0.2 0.5 1.7 0.5 1.9 0 2.7 -0.2 1.8 -0.5z"/>
  <path d="M437.1 553.3 c0.3 -2 -0.2 -2.7 -1.1 -1.3 -0.6 1 -1 -20.3 -1 -61.2 0 -55.6 0.2 -62.8 1.6 -64.2 1.4 -1.4 9.6 -1.6 75.3 -1.6 59.4 0 74.1 0.3 74.9 1.3 1.4 1.6 1.4 17.4 0.1 18.2 -0.5 0.4 -0.9 1.4 -0.8 2.3 0 1.4 0.2 1.3 0.9 -0.3 0.7 -1.6 0.9 -1.3 0.9 1.6 0.1 1.9 -0.5 4.1 -1.1 4.8 -1 1.1 -1 1.3 0 0.7 0.8 -0.5 1.2 0.2 1.2 2.6 -0.1 3.1 -1.9 6.8 -3.4 6.8 -0.3 0 -0.6 -7.1 -0.6 -15.9 0 -12.1 -0.3 -16.1 -1.4 -17 -1 -0.8 -20.5 -1 -71.5 -0.9 -61.1 0.3 -70.3 0.5 -71.1 1.8 -0.6 0.9 -1 25.5 -1 61.7 0 40 -0.3 60.4 -1 60.8 -0.6 0.4 -1 0.3 -0.9 -0.2z"/>
  <path d="M253.1 549.8 c-0.7 -2.1 -0.9 -4.3 -0.5 -4.9 0.4 -0.7 0.3 -0.9 -0.3 -0.6 -1.3 0.8 -7.7 -19.8 -7 -22.4 0.3 -1 0.2 -1.7 -0.3 -1.4 -0.8 0.5 -1.4 -2.3 -3.5 -17.5 -1.7 -12.2 -1.9 -34.3 -0.5 -48 1.3 -12.4 5 -31 6.2 -31 0.5 0 0.7 -0.4 0.3 -0.9 -1.6 -2.8 14 -41.4 15.7 -38.9 0.6 0.9 0.7 0.6 0.4 -0.7 -0.8 -2.6 8.4 -18.4 18.7 -32.1 9.2 -12.4 20.5 -24.6 21.9 -23.7 0.6 0.3 0.8 0.1 0.5 -0.5 -0.9 -1.4 13.2 -14.4 14.7 -13.5 0.6 0.3 0.8 0.3 0.4 -0.2 -0.9 -0.9 0.9 -3.5 2.4 -3.5 0.5 0 0.6 0.6 0.2 1.3 -0.4 0.7 -0.3 0.9 0.2 0.4 0.5 -0.5 0.9 -1.4 0.9 -2 0 -1.8 17.6 -14.6 19.2 -14 0.8 0.3 1.3 0 1.1 -0.8 -0.2 -0.8 0.4 -1.3 1.4 -1.3 1 0.1 1.5 -0.2 1.3 -0.7 -0.8 -1.2 18.2 -12.2 19.6 -11.3 0.7 0.4 0.9 0.3 0.6 -0.2 -0.3 -0.6 4.1 -3.3 9.9 -6.2 9.9 -4.9 13.7 -6.4 10.4 -4.1 -1.1 0.8 -0.9 0.9 1 0.4 1.4 -0.4 3 -1.2 3.5 -1.7 0.6 -0.6 0.4 -0.7 -0.7 -0.3 -1 0.4 -1.8 0.5 -1.8 0.2 0 -1.1 16.3 -6.8 17.7 -6.3 0.8 0.3 1.2 0.2 0.8 -0.3 -0.7 -1.2 9.1 -4.5 11.1 -3.7 0.8 0.3 1.3 0.2 1 -0.3 -0.6 -0.9 7.3 -3.5 10.3 -3.4 0.9 0 2.1 -0.3 2.6 -0.7 1.7 -1.3 16.4 -4.2 18.1 -3.6 0.8 0.3 1.3 0.2 1 -0.3 -0.6 -0.9 17.1 -3.9 26.9 -4.5 4.7 -0.3 5.1 -0.2 2 0.4 -2.2 0.4 -3.2 0.8 -2.2 0.8 0.9 0.1 1.7 0.8 1.7 1.6 0 0.9 -1.9 1.6 -5.7 2.1 -9.9 1.2 -36.5 6.4 -43.3 8.5 -3.6 1.1 -9.4 2.8 -13 3.9 -10.2 3.1 -28.2 10.1 -31.2 12.2 -1.4 1.1 -3.1 1.9 -3.7 1.9 -0.7 0 -3.4 1.1 -6.1 2.5 -2.7 1.4 -5.6 2.5 -6.4 2.5 -0.7 0 -1.6 0.6 -1.9 1.2 -0.2 0.7 -3 2.6 -6.1 4.1 -3 1.6 -5.8 3.3 -6.1 3.8 -0.4 0.5 -1.2 0.9 -2 0.9 -0.8 0 -2.6 1.1 -4.1 2.5 -1.5 1.4 -3.3 2.5 -4 2.5 -0.7 0 -1.4 0.3 -1.6 0.8 -0.3 0.7 -16.6 13.2 -17.3 13.2 -0.2 0 -3.4 2.8 -7.2 6.2 -45.1 41.1 -69.8 87.6 -75.3 141.7 -2.6 26.5 0.9 54.5 10 79.6 2.8 7.6 3.5 12.1 2.1 12.9 -0.6 0.4 -1.1 0 -1.2 -1.1 0 -1.6 -0.1 -1.6 -0.8 0.2 -0.7 1.7 -1 1.5 -2 -1.7z"/>
  <path d="M489.5 538.3 c-3.6 -0.5 -5.8 -2.3 -2.9 -2.4 1.5 -0.1 1.4 -0.3 -0.6 -0.9 -2.2 -0.7 -2.1 -0.8 1.3 -0.9 2 -0.1 3.7 0.4 3.7 0.9 0 0.6 0.9 1 1.9 1 1.1 0 2.3 -0.4 2.6 -1 0.3 -0.5 2.6 -1 5.1 -1 2.4 0 4.4 0.5 4.4 1 0 0.6 0.7 1 1.5 1 0.8 0 1.5 0.6 1.5 1.4 0 1.2 -1.6 1.5 -7.7 1.4 -4.3 -0.1 -9.1 -0.3 -10.8 -0.5z"/>
  <path d="M462.2 528.8 c0 -9.7 0.6 -12.5 1.9 -9.2 0.5 1.3 0.7 0.7 0.7 -2.1 0 -2.2 -0.2 -3.2 -0.5 -2.2 -0.6 2.4 -2.3 1.1 -2.3 -1.8 0 -2.9 1.7 -4.2 2.3 -1.8 0.3 1 0.5 -4.9 0.5 -13.2 0 -8.2 -0.2 -14.2 -0.5 -13.2 -0.7 2.8 -2.3 0.9 -2.3 -2.8 0 -3.7 1.6 -5.6 2.3 -2.8 0.3 1 0.5 0 0.5 -2.2 0 -2.2 -0.2 -3.2 -0.5 -2.2 -0.6 2.4 -2.3 1.1 -2.3 -1.8 0 -2.9 1.7 -4.2 2.3 -1.8 0.3 1 0.5 -2.7 0.5 -8.2 0 -5.5 -0.2 -9.2 -0.5 -8.2 -0.7 2.6 -2.3 1 -2.3 -2.2 0 -3.3 1.7 -4.1 9.7 -4.1 5.1 0 8 1.4 4.6 2.3 -1 0.3 0 0.5 2.2 0.5 3 0 3.5 -0.1 2 -0.8 -4.3 -1.7 2 -2 40.5 -1.8 l39.5 0.3 0.3 2.8 c0.2 1.6 0 3.6 -0.3 4.5 -0.6 1.5 -0.8 1.5 -1.5 -0.3 -0.6 -1.3 -0.9 0.4 -0.9 5 0 4.2 0.3 6.2 0.8 5.1 1.2 -3 1.8 -0.7 1.9 6.4 0.1 4 -0.4 6.7 -1.1 7.2 -0.7 0.4 -14.1 0.8 -29.9 0.8 l-28.8 0 -0.5 2.3 c-0.3 1.2 -0.5 6 -0.3 10.7 l0.3 8.5 41.8 0.3 41.7 0.2 0.1 -11.2 c0.1 -6.2 0 -14.6 -0.1 -18.5 -0.2 -6.8 0 -7.3 1.9 -7.3 1.8 0 2 0.3 1.1 1.9 -1.3 2.5 -1.3 4.1 0 2.1 0.6 -1 0.9 4.5 0.9 16.5 -0.1 9.9 -0.3 17.2 -0.6 16.1 -0.4 -1.7 -0.6 -1.6 -1.7 0.5 -0.8 1.6 -0.9 2.6 -0.2 3.1 2.3 1.6 -6.1 1.9 -45.7 1.6 -35.8 -0.3 -41.9 -0.5 -42.7 -1.8 -1.6 -2.5 -1.2 -26.6 0.4 -28.3 2 -2 47 -2.2 46.2 -0.2 -0.5 1.4 1.8 1.5 3.1 0 0.4 -0.4 0.2 -0.5 -0.4 -0.1 -0.7 0.4 -1.3 0.2 -1.3 -0.3 0 -0.7 2.4 -1.1 6 -1.1 l6 0 0 -11.5 0 -11.5 -45.5 0 -45.5 0 0 40.5 0 40.5 4.1 0 c3.5 0 6.9 1.7 6.9 3.4 0 0.3 -3.4 0.6 -7.5 0.6 l-7.4 0 0.1 -9.2z m124.5 -50.5 c-0.3 -1 -0.5 -0.2 -0.5 1.7 0 1.9 0.2 2.7 0.5 1.8 0.2 -1 0.2 -2.6 0 -3.5z m-28 -8 c-0.3 -1 -0.5 -0.2 -0.5 1.7 0 1.9 0.2 2.7 0.5 1.8 0.2 -1 0.2 -2.6 0 -3.5z"/>
  <path d="M509.5 537 c-0.3 -0.5 0.2 -1 1.2 -1.1 1.3 -0.1 1.1 -0.3 -0.7 -0.9 -1.5 -0.5 5.3 -0.8 16.3 -0.9 11.8 -0.1 18.7 0.3 18.7 0.9 0 0.6 0.9 1 2.1 1 1.1 0 1.7 -0.4 1.4 -1 -0.4 -0.6 1.4 -0.9 4.7 -0.9 l5.3 0.2 -4 0.7 c-2.2 0.4 -3.2 0.8 -2.2 0.9 1 0 1.5 0.6 1.2 1.1 -0.8 1.3 -11.2 1.3 -12 0.1 -0.3 -0.5 0.3 -1.2 1.2 -1.4 1 -0.3 -0.2 -0.5 -2.7 -0.5 -3 0 -3.9 0.2 -2.6 0.7 3 1.2 0.7 1.8 -6.8 1.9 -7.4 0.1 -10.2 -0.7 -7 -1.9 1.1 -0.5 -0.7 -0.7 -4.6 -0.7 -3.6 0 -5.7 0.2 -4.7 0.5 0.9 0.2 1.5 0.9 1.2 1.4 -0.8 1.2 -5.2 1.2 -6 -0.1z m24.3 -1.7 c-1 -0.2 -2.6 -0.2 -3.5 0 -1 0.3 -0.2 0.5 1.7 0.5 1.9 0 2.7 -0.2 1.8 -0.5z"/>
  <path d="M562.5 537 c-0.3 -0.5 0.1 -1 1 -1 0.9 0 1.3 -0.4 1 -1 -0.4 -0.6 0.6 -1 2.2 -0.9 2.5 0 2.6 0.1 0.8 0.9 -1.8 0.8 -1.8 0.9 -0.2 0.9 2.7 0.1 1 2.1 -1.8 2.1 -1.3 0 -2.7 -0.4 -3 -1z"/>
  <path d="M571.5 537 c-0.3 -0.5 0.1 -1 1 -1 0.9 0 1.3 -0.4 1 -1 -0.3 -0.5 -0.2 -1 0.4 -1 0.5 0 1.2 0.6 1.4 1.3 0.4 1 0.6 1 0.6 0 0.1 -2 23.7 -1.8 25.7 0.1 0.8 0.8 1.4 1.7 1.4 2 0 1 -15.8 0.7 -16.5 -0.3 -0.3 -0.5 0.3 -1.2 1.2 -1.4 1 -0.3 -1.1 -0.5 -4.7 -0.5 -3.6 0 -5.7 0.2 -4.7 0.5 0.9 0.2 1.5 0.9 1.2 1.4 -0.8 1.2 -7.2 1.2 -8 -0.1z"/>
  <path d="M783.6 498.5 c0.8 -14.2 0.8 -17.5 -0.1 -34.5 -0.2 -5.2 -0.2 -8.9 0.1 -8.2 0.3 0.6 1 1.2 1.6 1.2 0.7 0 0.8 -2.1 0.5 -5.7 -0.5 -4.5 -0.4 -5 0.3 -2.3 2.7 10.7 3.6 43.8 1.5 54.5 -0.2 1.1 -0.4 3.6 -0.5 5.5 -0.1 1.9 -0.4 2.9 -0.7 2.2 -0.4 -1 -0.8 -1 -2 0 -1.4 1.1 -1.4 -0.3 -0.7 -12.7z"/>
  <path d="M782.2 451 c0.2 -1.6 0.2 -3.1 -0.2 -3.2 -0.3 -0.2 -2.3 -7.3 -4.5 -15.9 -3.6 -14.6 -4 -18.9 -1.6 -18.9 0.6 0 0.7 0.7 0.4 1.7 -0.4 1 -0.2 1.4 0.4 1 0.6 -0.4 1.4 0.3 1.7 1.6 5.7 19.8 6.4 23.6 6 29.7 -0.2 3 -0.3 5.8 -0.4 6.3 0 0.4 -0.5 0.7 -1.1 0.7 -0.7 0 -1 -1.2 -0.7 -3z"/>
  <path d="M755.5 436.8 c-4.4 -14.4 -6 -19 -7.7 -22.8 -1.2 -2.5 -2.3 -6.6 -2.6 -9.2 l-0.5 -4.8 3.6 0 c3 0 3.9 0.5 5.1 2.8 3 5.9 9.6 27.1 9.6 31 0 4.1 -0.1 4.2 -3.5 4.2 -2 0 -3.7 -0.6 -4 -1.2z"/>
  <path d="M730.3 380.3 c-0.5 -1.5 -4.2 -7.1 -8.5 -12.8 -14 -18.7 -34.9 -38.4 -55.3 -51.9 -12.2 -8.1 -13.2 -8.7 -24.5 -14.6 -10.3 -5.4 -10.5 -5.6 -10.8 -9.3 -0.3 -3.7 -0.3 -3.7 3.5 -3.7 6.7 0 34.8 16.7 54 32 23 18.4 50.3 50.3 50.3 58.7 0 3.2 -0.1 3.3 -4 3.3 -3 0 -4.2 -0.5 -4.7 -1.7z"/>
  <path d="M740 356.7 c-2.2 -2.8 -13.3 -15.9 -17.9 -21.2 -1 -1.1 -4.7 -4.6 -8.3 -7.7 -5.7 -4.9 -6.5 -6.1 -6.6 -9.4 l-0.2 -3.7 2.8 2.4 c7.5 6.6 10.1 9.3 9.5 10.3 -0.3 0.6 -0.2 0.8 0.2 0.3 1.3 -1.1 4.4 2.3 3.8 4.1 -0.3 1.2 -0.2 1.3 0.4 0.5 1 -1.4 5 2.4 14.4 13.7 5.6 6.8 12.1 15.8 8 11.1 -2.2 -2.5 -2.7 -2.1 -1.2 0.8 1.7 3.1 -2.3 2.2 -4.9 -1.2z"/>
  <path d="M654.8 285.6 c-3.2 -1.7 -5.8 -3.7 -5.8 -4.3 0 -0.7 -1.1 -1.3 -2.5 -1.3 -3.4 0 -12.5 -4.7 -12.5 -6.4 0 -3.4 4.5 -2.3 16.9 4 8.9 4.5 12.9 7.1 13.8 8.9 1 2.3 0.9 2.5 -1.5 2.4 -1.5 -0.1 -5.3 -1.6 -8.4 -3.3z m-4.2 -7.1 c-2.1 -1.6 -3.2 -1.3 -2.1 0.4 0.3 0.6 1.4 1.1 2.3 1.1 1.5 -0.1 1.5 -0.2 -0.2 -1.5z"/>
  <path d="M605.1 284.9 c-27.6 -10.1 -59.6 -15.2 -94.4 -15.1 l-22.8 0 0.3 -3.6 0.3 -3.7 20.5 -0.3 c37.3 -0.6 67.4 3.7 99.3 14.1 l9.7 3.1 0 3.8 c0 3.7 -0.1 3.8 -3.7 3.7 -2.1 0 -6.2 -0.9 -9.2 -2z"/>
  <path d="M434.2 275.3 c0.3 -3.5 0.5 -3.7 5.3 -5 2.8 -0.7 7.2 -1.3 9.8 -1.3 l4.8 0 -0.3 3.7 c-0.3 3.5 -0.5 3.7 -5.3 5 -2.7 0.7 -7.2 1.3 -9.8 1.3 l-4.8 0 0.3 -3.7z"/>
  <path d="M467 268.6 c0 -4.1 1.3 -4.6 12.3 -4.6 l7.7 0 0 3.4 c0 3.3 -0.1 3.3 -5.2 4 -2.9 0.3 -7.4 0.6 -10 0.6 -4.8 0 -4.8 0 -4.8 -3.4z"/>
  <path d="M609 265.1 c0 -0.5 -1.5 -1.1 -3.2 -1.4 -7.7 -1.1 -17.3 -4.3 -17.6 -5.9 -0.2 -0.8 0.5 -1.7 1.5 -2 2.6 -0.7 14.4 2.2 13.8 3.3 -0.3 0.5 0 0.6 0.8 0.4 0.7 -0.3 2.4 -0.1 3.8 0.4 1.3 0.5 1.8 1 1 1 -1.1 0.1 -1.1 0.4 -0.1 1.6 1.4 1.6 3.4 1 2.4 -0.7 -0.5 -0.8 -0.1 -0.9 1 -0.5 1 0.4 2.3 0.7 2.9 0.7 0.7 0 0.6 0.4 -0.3 1 -1.3 0.8 -1.2 1 0.3 1 1 0 1.5 0.5 1.2 1 -0.8 1.2 -7.5 1.3 -7.5 0.1z"/>
  <path d="M575.5 256.1 c-1.1 -0.4 -7.7 -1.6 -14.7 -2.6 -12.2 -1.7 -12.8 -1.9 -12.8 -4.1 0 -2 0.4 -2.3 2.8 -1.9 1.5 0.2 6.6 0.9 11.5 1.6 4.8 0.6 8.7 1.4 8.7 1.9 0 0.4 1.1 0.5 2.5 0.2 1.4 -0.2 2.5 0 2.5 0.6 0 0.6 0.8 0.8 1.8 0.6 0.9 -0.2 3.1 0 4.7 0.5 1.7 0.5 2.2 1 1.2 1 -1 0.1 -1.5 0.6 -1.2 1.1 0.4 0.6 1.1 0.7 1.7 0.4 0.7 -0.4 0.8 -0.2 0.4 0.4 -0.8 1.3 -6.1 1.5 -9.1 0.3z"/>
  <path d="M539 249.6 c0 -0.8 0.8 -1.7 1.8 -1.9 0.9 -0.3 -0.1 -0.5 -2.3 -0.5 -2.2 0 -3.2 0.2 -2.2 0.5 0.9 0.2 1.5 0.9 1.2 1.4 -0.8 1.2 -8.5 1.2 -8.5 -0.1 0 -0.5 0.5 -1 1 -1 0.6 0 1 -0.4 1 -1 0 -0.5 -1.5 -1 -3.2 -0.9 -1.8 0 -2.7 0.3 -2 0.6 2.1 0.8 1.3 2.3 -1.2 2.3 -3 0 -4.3 -1.7 -1.9 -2.3 1 -0.3 0 -0.5 -2.2 -0.5 -2.2 0 -3.2 0.2 -2.2 0.5 3.2 0.8 1.9 3.3 -1.8 3.3 -3.7 0 -5 -2.5 -1.7 -3.3 0.9 -0.3 -0.1 -0.5 -2.3 -0.5 -2.2 0 -3.4 0.2 -2.7 0.5 2.3 0.9 1.2 2.3 -1.7 2.3 -3.4 0 -5 -1.6 -2.4 -2.3 1 -0.3 0.2 -0.5 -1.7 -0.5 -1.9 0 -2.9 0.2 -2.2 0.5 2.1 0.8 1.3 2.3 -1.2 2.3 -3 0 -4.3 -1.7 -1.9 -2.3 1 -0.3 0.1 -0.5 -1.9 -0.6 -2.1 0 -3.8 0.4 -3.8 1 0 0.5 0.5 0.7 1 0.4 0.6 -0.3 1 0.1 1 0.9 0 1.1 -0.9 1.6 -3 1.6 -3.2 0 -4.1 -1.7 -1.4 -2.7 1.3 -0.5 1.3 -0.7 0.2 -1.4 -0.7 -0.5 8 -0.9 19.9 -0.9 19.1 0 21.3 0.2 22.2 1.8 0.6 0.9 1.1 1.1 1.1 0.5 0 -3 13 -0.5 13 2.5 0 0.7 -1.5 1.2 -4 1.2 -2.8 0 -4 -0.4 -4 -1.4z"/>
 </g>
 <g fill="#0a192a">
  <path d="M289.5 712.2 c-5.1 -1.1 -7.2 -5.9 -5.4 -12.5 0.7 -2.3 1.2 -4.5 1.1 -4.9 -0.1 -0.4 0.3 -2 0.9 -3.5 0.7 -1.5 1.5 -4.4 2 -6.3 0.4 -1.9 1.3 -5.3 1.9 -7.5 0.6 -2.2 1.3 -5.5 1.6 -7.4 0.2 -1.9 0.7 -3.8 1.1 -4.4 1.4 -2.3 6.4 -28.4 6.4 -33.7 0 -2.5 0.5 -6 1 -7.7 1 -3.1 0.8 -3.6 -6.4 -11.6 -4.1 -4.6 -9.9 -11.7 -12.9 -15.8 -6.3 -8.5 -16.8 -25.8 -16.8 -27.6 0 -0.7 -0.6 -1.3 -1.3 -1.3 -1.8 0 -7.2 -11.5 -6.9 -14.7 0.1 -1.4 -0.3 -3.1 -0.8 -3.8 -3.1 -3.7 -11.1 -33.7 -12.5 -47 -2.2 -20.6 -1.4 -47.3 2 -62.7 0.7 -3.5 2 -9.4 2.9 -13.3 2.1 -9.8 6.9 -23.4 12.2 -34.5 7.3 -15.2 8.8 -17.9 9.8 -17.3 0.5 0.3 0.6 0.1 0.2 -0.5 -0.8 -1.3 4.1 -9.4 12.6 -20.5 3.2 -4.3 5.6 -8.2 5.3 -8.8 -0.4 -0.5 -0.2 -0.8 0.3 -0.7 0.5 0.2 5.2 -4.3 10.4 -9.9 9.9 -10.7 20.3 -20.4 23.8 -22.3 1.1 -0.6 1.8 -1.5 1.6 -1.9 -0.7 -1.1 3 -4.4 5.2 -4.7 0.9 -0.2 2.5 -1.3 3.5 -2.6 1 -1.2 2.4 -2.3 3.1 -2.4 0.6 -0.1 2.9 -1.4 5.1 -2.8 4 -2.8 6.2 -4.6 3.6 -3.1 -0.9 0.5 -1.2 0.4 -0.7 -0.3 0.4 -0.6 1.3 -0.9 2.1 -0.6 0.8 0.3 2.1 -0.5 3 -1.9 0.9 -1.4 2.3 -2.8 3.2 -3.1 1.4 -0.6 1.4 -0.4 0.2 1.1 -1.3 1.7 -1.2 1.7 0.6 0.2 1.1 -0.9 2.8 -1.9 3.8 -2.2 1 -0.4 1.6 -1.1 1.2 -1.6 -0.3 -0.6 0.4 -0.8 1.5 -0.6 1.1 0.2 2 0 2 -0.4 0 -0.5 1.3 -1.4 3 -2.1 1.6 -0.7 2.7 -1.6 2.4 -2.1 -0.3 -0.5 -0.2 -0.9 0.3 -1 0.4 0 1.7 -0.3 2.8 -0.5 1.1 -0.3 2.6 -0.6 3.3 -0.6 0.6 -0.1 1.2 -0.5 1.2 -1 0 -0.5 0.5 -0.6 1 -0.3 0.5 0.3 1 0.2 1 -0.4 0 -0.5 1 -1.3 2.3 -1.6 2.1 -0.7 4.4 -1.6 15.7 -6.8 7.2 -3.3 14.7 -5.8 18.1 -6 1.5 -0.1 2.5 -0.5 2.3 -0.9 -0.3 -0.4 1.5 -1.2 3.8 -1.8 2.4 -0.6 6.2 -1.8 8.5 -2.5 2.3 -0.8 5.7 -1.7 7.5 -1.9 1.8 -0.3 9.6 -1.9 17.3 -3.6 8 -1.7 18.8 -3.3 25.2 -3.7 6.2 -0.3 11 -1 10.7 -1.4 -0.3 -0.5 0 -0.9 0.5 -0.9 0.6 0 1.1 0.4 1.1 0.8 0 0.4 2.4 0.6 5.3 0.4 2.8 -0.2 5.9 -0.3 6.7 -0.2 0.8 0 2.4 0 3.5 -0.1 1.1 0 2.9 0 4 0 1.1 0 4.9 0 8.5 0 3.6 -0.1 7 0 7.5 0.1 0.6 0.1 6.4 0.3 13.1 0.4 6.6 0.2 12.5 0.5 13 0.8 1.4 0.9 18.6 3.2 21.9 3 1.6 -0.1 3.2 0.3 3.5 0.8 0.4 0.6 1.7 1.2 2.9 1.5 1.3 0.2 2.8 0.8 3.5 1.3 0.6 0.4 2.7 0.9 4.6 1.1 5 0.3 18.1 4 21 5.9 1.3 0.8 4.5 1.7 7 1.9 5 0.3 20.1 5.4 18.2 6.1 -1.8 0.6 -0.4 2.2 1.9 2.2 2.5 0 12.2 4.8 13.2 6.6 0.4 0.8 1.7 1.4 2.8 1.4 2.4 0 9.6 3.5 12.4 6.1 1.1 1 3 1.7 4.1 1.7 3.1 -0.3 12.9 6.2 11.2 7.4 -0.9 0.7 -0.7 0.8 0.7 0.5 2.1 -0.4 10.4 5 20.3 13 6.8 5.5 23.2 22.1 23.2 23.4 0 0.6 0.4 0.8 0.9 0.5 0.5 -0.4 2.4 1.3 4.2 3.6 3.3 4.1 6 7.2 10.2 11.6 1.2 1.2 1.7 2.2 1.2 2.2 -0.6 0 -0.2 0.5 0.8 1.1 2 1.1 5 6.6 4.3 7.7 -0.2 0.4 0.5 0.9 1.7 0.9 2.7 0.2 6.7 5.1 5.9 7.1 -0.3 1 -0.1 1.3 0.6 0.8 1.1 -0.7 3.5 2.6 2.7 3.8 -0.3 0.3 -0.2 0.4 0.2 0.1 1 -0.8 4.6 5.7 4.8 8.5 0 1.4 0.6 2.4 1.3 2.3 1.5 -0.4 5.5 7.4 4.6 8.9 -0.4 0.6 -0.3 0.8 0.3 0.5 1 -0.6 4.8 6.2 3.9 7.1 -0.3 0.3 -1 -0.6 -1.5 -1.9 l-1 -2.4 0 2.3 c-0.1 1.6 0.6 2.6 1.9 2.9 2.1 0.6 3.5 3.6 2.4 5.4 -0.4 0.7 -0.3 0.9 0.3 0.6 1.4 -0.9 3.5 4.4 3.7 9.3 0 2.2 0.4 4 0.8 4 0.3 0 0.5 0.8 0.4 1.8 -0.2 0.9 0.3 2.6 1 3.7 0.8 1.2 1.5 3 1.7 4 0.1 1.1 0.5 2.5 0.9 3 1.2 2 2.8 12.2 2.9 18.5 0.1 3.6 0.5 6.7 1 7 2.1 1.4 3.1 43.2 1 44.4 -0.5 0.3 -0.7 1.9 -0.5 3.6 0.2 1.9 -0.1 3 -0.9 3 -0.8 0 -0.8 0.3 0.2 0.9 0.9 0.6 1 1.1 0.2 1.5 -0.6 0.4 -1.1 3 -1.1 5.7 0 5 -2.9 18.1 -5.2 23.6 -0.6 1.6 -1.3 3.8 -1.4 5 -0.4 2.9 -7.5 19.6 -8.8 20.5 -0.6 0.4 -0.8 0.8 -0.3 0.8 0.7 0 -2.4 6.3 -8.5 17.2 -1.2 2.1 -2.6 3.4 -3.1 3.1 -0.6 -0.3 -0.7 -0.1 -0.3 0.6 0.4 0.6 0.2 1.8 -0.4 2.6 -0.6 0.8 -0.9 1.9 -0.5 2.5 0.4 0.6 0.2 0.9 -0.4 0.8 -0.5 -0.2 -3 2.5 -5.4 5.9 -2.4 3.5 -4.7 6 -5.1 5.6 -0.3 -0.3 -0.6 -0.1 -0.6 0.6 0 1.4 -6.1 9.2 -12.4 15.9 -2.2 2.3 -3.6 4.2 -3.1 4.2 0.5 0 -0.4 1.4 -2 3 -2.1 2.2 -3.1 2.7 -3.7 1.8 -0.6 -0.9 -0.8 -0.7 -0.6 0.7 0.2 1.2 -0.2 1.9 -1 1.7 -0.8 -0.1 -1.1 0.2 -0.8 0.7 0.9 1.4 -18.3 17.3 -19.7 16.4 -0.7 -0.3 -0.9 -0.2 -0.4 0.2 1.1 1.3 -8.1 7.4 -10.3 6.8 -1.4 -0.4 -2 0 -2 1.1 0 2 -11.9 9.9 -13.8 9.1 -0.7 -0.2 -1.1 -0.1 -0.8 0.3 0.3 0.5 -2.4 2.3 -6 4 -7.1 3.5 -7.9 3.7 -6.8 2 0.4 -0.7 0.3 -0.8 -0.5 -0.4 -0.6 0.4 -0.8 1.2 -0.5 1.8 0.5 0.8 0.1 0.9 -1 0.5 -0.9 -0.4 -1.5 -0.3 -1.2 0.2 0.8 1.3 -4.4 3.2 -6.8 2.6 -1.4 -0.4 -1.7 -0.3 -0.8 0.3 1.6 1.1 -12.2 6.7 -13.9 5.6 -0.8 -0.5 -0.9 -0.3 -0.4 0.6 0.6 1 0.3 1.2 -1.3 0.8 -1.2 -0.4 -2 -0.3 -1.7 0.2 0.6 1 -4.3 2.3 -5.7 1.4 -0.6 -0.4 -0.8 -0.3 -0.5 0.3 0.8 1.2 -16.5 6.3 -23.3 6.8 -8.3 0.7 -18 2.7 -18 3.6 0 0.6 -1.9 0.8 -4.2 0.6 -2.3 -0.2 -6.2 0 -8.7 0.5 -5 1 -10.3 1.5 -16.6 1.7 -3.1 0.1 -3.7 0.4 -2.5 1.2 1.1 0.7 -1.3 0.9 -8.2 0.7 -5.3 -0.2 -9.1 0.1 -8.5 0.5 0.7 0.5 -7.8 0.5 -18.8 0.2 -11.7 -0.4 -20.3 -1.1 -20.6 -1.7 -0.4 -0.6 -4 -1 -8 -1 -9.4 0.1 -24.9 -1.8 -24.9 -3 0 -0.5 -0.4 -0.7 -0.9 -0.4 -1.6 1 -13.2 -1.6 -13.8 -3.1 -0.4 -1 -0.8 -1.1 -1.2 -0.4 -0.8 1.2 -15.1 -2.3 -16.1 -3.9 -0.7 -1.2 -5.8 -3.1 -9.8 -3.6 -1.8 -0.2 -4.9 -1.1 -7 -2 -4.6 -2 -7.2 -2.5 -7.2 -1.5 0 1 -11.3 6.2 -13.9 6.4 -1.2 0.1 -2.1 0.4 -2.1 0.8 0 1.1 -6.1 3 -7.3 2.2 -0.5 -0.3 -0.7 -0.2 -0.4 0.4 0.8 1.3 -11.5 5.3 -14.4 4.6 -1.7 -0.3 -2 -0.2 -1.1 0.5 1.1 0.7 0.8 1.1 -1.3 1.6 -1.4 0.4 -3.1 0.4 -3.7 0 -0.7 -0.4 -0.8 -0.3 -0.4 0.4 0.7 1.2 -1.5 1.7 -6.4 1.3 -1.7 -0.1 -2.1 0.1 -1.2 0.7 1.9 1.3 -10.1 4.5 -13.9 3.7 -2.2 -0.5 -2.9 -0.3 -2.9 0.8 0 1 -2.5 1.9 -8.5 3.1 -4.7 0.9 -9 1.4 -9.5 1.1 -0.6 -0.3 -1 -0.2 -1 0.4 0 0.5 -1.7 1.2 -3.7 1.5 -4.8 0.8 -24.1 1.4 -26.8 0.8z m34.5 -23.3 c5.8 -1.5 9.4 -2.8 8 -2.8 -1.4 0 -6.8 1 -12 2.4 -5.2 1.4 -9.8 2.5 -10.2 2.5 -1.1 0 -1 -4.4 0.1 -5.5 2.9 -3 15.7 -52.8 17.6 -68.5 l0.7 -5.6 -10.4 -10.4 c-12.5 -12.7 -18.1 -19.7 -26 -32.6 -19.5 -31.5 -27.9 -63.3 -26.5 -100.4 0.9 -23.5 4.2 -39 13.3 -61.7 3 -7.3 6.5 -15.1 7.9 -17.3 1.4 -2.2 2.5 -4.2 2.5 -4.6 0 -1.1 13 -20.3 18 -26.6 2.8 -3.5 9.9 -11.1 15.8 -17 5.8 -6 10.2 -10.8 9.6 -10.8 -1.4 0 -19.9 19 -26.6 27.5 -21.5 26.9 -35.7 58.8 -40.9 92 -1.6 10.1 -1.6 39.3 0 50.5 2.9 19.7 10.4 42.2 19.8 59.2 9.5 17.2 23.6 35.5 35.8 46.5 l6.4 5.8 -2.5 13.9 c-3 16.7 -7.9 35.8 -13.4 52.6 -2.2 6.8 -3.8 13 -3.5 13.7 0.3 0.9 1.3 1.1 3.2 0.6 1.6 -0.3 7.5 -1.9 13.3 -3.4z m-0.5 -3.5 c3.9 -0.9 7.9 -2.3 9 -3.1 1.1 -0.7 3.1 -1.3 4.5 -1.3 1.4 0 3.1 -0.5 3.7 -1.1 1 -1 9.9 -3.4 17 -4.6 1.7 -0.3 3.9 -1.4 4.9 -2.4 0.9 -1 2.5 -1.9 3.4 -1.9 1 0 2.3 -0.6 2.9 -1.4 0.6 -0.7 3 -1.6 5.2 -2 2.2 -0.4 6.5 -2.2 9.5 -4.1 2.9 -1.9 6.6 -3.7 8.1 -4.1 1.6 -0.4 3.5 -1.2 4.3 -1.9 2.8 -2.3 13.2 -6.5 16 -6.5 1.6 0 5.8 1.3 9.4 3 16.9 7.6 43.1 14.2 69.1 17.6 15.4 2 52.9 2.4 54.8 0.5 0.6 -0.6 4 -1.1 7.6 -1.1 3.7 -0.1 8.6 -0.5 11.1 -1.1 7.2 -1.6 12.9 -2.6 22 -3.9 4.7 -0.6 9.2 -1.7 10 -2.4 0.8 -0.8 3.8 -1.6 6.5 -2 6.5 -0.8 23 -6.3 24.6 -8.2 0.6 -0.8 2.9 -1.7 5.1 -2 2.1 -0.4 4.1 -1.1 4.4 -1.5 0.3 -0.5 1.8 -0.9 3.3 -0.9 1.6 0 3.7 -1 5.1 -2.5 1.3 -1.4 3 -2.5 3.8 -2.5 0.9 0 2.3 -0.6 3.1 -1.3 2.2 -1.9 16.1 -9.7 17.2 -9.7 0.5 0 2.9 -1.5 5.3 -3.2 15 -11.3 19.3 -14.6 20.5 -16.1 0.7 -0.9 2.1 -1.7 3 -1.7 2.3 0 21.2 -19.4 28.8 -29.5 20.8 -27.6 32.5 -58.3 35.2 -92.3 1 -12.7 -0.2 -35.1 -2 -36.2 -1.1 -0.7 -3.9 -14 -3.9 -18.4 0 -4.1 -3.8 -15.7 -5.6 -17.2 -0.8 -0.6 -1.4 -2.3 -1.4 -3.8 0 -2.9 -2.3 -8.2 -3.9 -8.8 -0.4 -0.1 -2.5 -3.7 -4.6 -7.7 -2 -4.1 -4.8 -9.2 -6.1 -11.3 -1.3 -2.1 -2.4 -4.7 -2.4 -5.8 0 -1.1 -0.7 -2 -1.5 -2 -0.8 0 -1.5 -0.7 -1.5 -1.5 0 -0.8 -0.4 -1.5 -1 -1.5 -0.5 0 -1 -0.8 -1 -1.7 -0.1 -2.2 -2.3 -5.3 -3.9 -5.3 -0.6 0 -1.1 -0.8 -1.1 -1.9 0 -1 -0.9 -2.1 -2 -2.4 -1.2 -0.3 -2 -1.4 -2 -2.7 0 -1.3 -0.8 -2.4 -1.9 -2.7 -1.1 -0.3 -2.1 -1.5 -2.3 -2.6 -0.2 -1.2 -1.4 -2.7 -2.7 -3.3 -3.2 -1.6 -14.9 -13.3 -16.4 -16.4 -0.7 -1.3 -2.3 -2.7 -3.7 -3 -1.4 -0.3 -3.1 -1.8 -3.8 -3.3 -0.8 -1.6 -2.1 -2.7 -3.3 -2.7 -1.2 0 -2.3 -0.8 -2.6 -2 -0.3 -1.1 -1.4 -2 -2.4 -2 -1.1 0 -1.9 -0.7 -1.9 -1.5 0 -0.8 -0.9 -1.5 -2 -1.5 -1.1 0 -2 -0.4 -2 -1 0 -0.5 -0.7 -1 -1.5 -1 -0.9 0 -1.8 -0.7 -2.1 -1.5 -0.4 -0.8 -1.2 -1.5 -2 -1.5 -0.8 0 -1.4 -0.4 -1.4 -1 0 -0.5 -0.7 -1 -1.5 -1 -0.8 0 -1.5 -0.4 -1.5 -1 0 -0.5 -0.7 -1 -1.5 -1 -0.8 0 -1.5 -0.6 -1.5 -1.3 0 -1.5 -3 -3.2 -7.2 -4.1 -1.6 -0.4 -2.8 -1.3 -2.8 -2 0 -1.5 -2.1 -2.6 -5.1 -2.6 -1 0 -1.9 -0.6 -1.9 -1.3 0 -1.5 -6.1 -4.7 -8.8 -4.7 -2.3 0 -20.4 -8 -21.7 -9.6 -2 -2.5 -31.3 -10.8 -49 -13.9 -26 -4.5 -64 -6.1 -70.4 -2.9 -2.3 1.1 -4.9 1.5 -8.7 1.2 -3.5 -0.3 -5.4 -0.1 -5.4 0.6 0 1.1 -20.4 4.7 -29 5.2 -2.5 0.1 -5.3 0.2 -6.2 0.3 -1 0.1 -1.8 0.7 -1.8 1.5 0 0.9 -1.7 1.6 -4.5 2 -4.8 0.8 -18 5 -19.9 6.4 -0.6 0.5 -3.1 1.4 -5.6 2.1 -4 1.1 -18.3 7.4 -26.5 11.7 -10.5 5.5 -16.3 8.8 -18 10.3 -1.1 0.9 -3.3 2.3 -4.8 3.1 -1.5 0.8 -4.5 2.9 -6.7 4.7 -2.1 1.8 -4.2 3.3 -4.7 3.3 -0.5 0 -4.8 3.4 -9.6 7.5 -4.8 4.1 -9.2 7.5 -9.9 7.5 -1.6 0 -8.8 7.1 -8.8 8.7 0 0.7 -0.5 1.3 -1.2 1.3 -1.9 0 -5.8 4.2 -5.8 6.2 0 1.1 -1.1 2.3 -2.5 2.8 -1.6 0.6 -2.5 1.7 -2.5 3.1 0 1.2 -0.8 2.3 -2 2.6 -1.1 0.3 -2 1.4 -2 2.4 0 1.1 -0.7 1.9 -1.5 1.9 -0.8 0 -1.5 0.8 -1.5 1.9 0 1 -0.9 2.1 -2 2.4 -1.3 0.3 -2 1.4 -2 3 0 1.6 -0.7 2.6 -2 3 -1.4 0.3 -2 1.4 -2 3.1 0 1.6 -0.6 2.6 -1.5 2.6 -0.9 0 -1.5 0.9 -1.5 2.5 0 1.4 -0.6 2.5 -1.3 2.5 -1.6 0 -3.7 4.1 -3.7 7 0 1.1 -0.9 2.7 -1.9 3.7 -5.5 5.1 -14.9 33.6 -18.2 54.8 -1.5 10 -1.5 33.3 0.1 44.5 2.5 17.6 8.7 37.6 16.7 53.5 5.5 11 13.5 23.3 15.5 23.8 1 0.3 1.8 1.2 1.8 2 0 0.8 0.7 1.7 1.5 2.1 0.8 0.3 1.5 1.3 1.5 2.2 0 2 3.8 7.4 5.2 7.4 1.8 0 4.8 3.2 4.8 5 0 2.1 11.3 13 13.4 13 1.2 0 1.6 1 1.6 4 0 9.4 -7 42.2 -13.4 63 -4.1 13.2 -4.4 15.4 -1.8 14.6 0.9 -0.3 4.9 -1.3 8.7 -2.2z m37.2 -7.1 c3.5 -0.6 6.8 -3.3 3.9 -3.3 -0.8 0 -3.5 0.7 -5.8 1.7 -4.9 1.8 -7.7 4 -3.8 2.8 1.4 -0.4 3.9 -0.9 5.7 -1.2z m178.3 -2.3 c8 -0.6 6.2 -0.7 -11.5 -0.8 -44.7 -0.4 -71.4 -5.4 -111.7 -20.9 -4.6 -1.7 -4.8 -1.7 -6.5 0.1 -1.7 1.8 -1.7 1.8 0.4 0.7 1.7 -0.9 3.3 -0.5 8.8 1.9 31.1 13.9 82 22 120.5 19z m-154.5 -8.2 c1.7 -1 2.5 -1.7 1.8 -1.8 -1.7 0 -10 3.7 -10.7 4.8 -0.7 1.1 4.7 -0.7 8.9 -3z m234.5 -6.7 c4.7 -1.6 7.6 -3 6.4 -3 -2.3 -0.1 -14.4 3.7 -15.8 5 -1.7 1.5 0.6 1 9.4 -2z m96.6 -59.3 c29.5 -30.5 46 -67.3 49.4 -110.2 0.9 -10.3 0.8 -17.2 0 -27 -0.7 -7.2 -1.4 -13.3 -1.6 -13.5 -1.1 -1.2 -1.2 1.3 -0.4 9.4 2.2 20.6 0.6 42 -4.6 62.4 -8 31.3 -22.2 55.6 -47.9 81.9 -7.7 7.9 -14.2 14.6 -14.5 15 -2.2 2.7 13.2 -11.3 19.6 -18z m43.9 -169.4 c-1 -5.4 -8.4 -25.9 -10.1 -28.1 -1.4 -1.7 -1.5 -1.6 -0.8 0.7 0.4 1.4 1.5 4.3 2.5 6.5 1 2.2 3.2 8.6 5 14.3 3.2 10.4 4.7 13.1 3.4 6.6z m-28 -60.4 c-15.4 -22.7 -38.5 -45.2 -63.3 -61.8 -8.8 -6 -31.9 -19.2 -33.5 -19.2 -2.2 0 1.2 2.3 10.4 7 5.6 2.8 11.3 5.9 12.8 6.9 1.4 0.9 6.4 4.3 11.1 7.4 20.8 13.8 41.6 33.3 55.8 52.2 5.2 7 8.2 11.4 8.2 12.2 0 1.2 2.2 3.4 2.9 2.8 0.2 -0.3 -1.7 -3.7 -4.4 -7.5z m-39.6 -68.3 c-0.2 -0.2 -1.2 -0.9 -2.1 -1.6 -1.5 -1.1 -1.8 -1.1 -1.8 0.1 0 0.7 1 1.4 2.1 1.5 1.2 0.1 2 0.1 1.8 0z m-76.4 -20.6 c-1.3 -1.2 -20.7 -7.3 -31.5 -10 -21.9 -5.3 -46.5 -8.1 -72.7 -8.1 -10.5 0 -19.4 0.4 -19.7 0.8 -0.3 0.4 9.7 0.8 22.2 0.9 34.9 0.1 67 5.2 94.3 15.2 6 2.1 8.8 2.6 7.4 1.2z m-170.7 -8.2 c5 -1.3 7.8 -2.9 4.8 -2.9 -2.6 0 -11 2.2 -12 3.1 -1.4 1.2 1.6 1.1 7.2 -0.2z m35.2 -6.8 l4.5 -0.8 -5.5 -0.1 c-3 0 -6.4 0.3 -7.5 0.8 -1.7 0.7 -1.6 0.9 1 0.9 1.7 0 5 -0.4 7.5 -0.8z"/>
  <path d="M541.2 564.3 c-68.2 -0.2 -103.1 -0.6 -102.7 -1.3 0.4 -0.7 36.6 -1 104.5 -1 93.1 0 104 -0.2 105.4 -1.6 1.4 -1.4 1.6 -11.4 1.6 -95.3 0 -89.6 -0.1 -93.9 -1.8 -95.4 -1.7 -1.6 -12.6 -1.7 -135.6 -1.7 -90.3 0 -134.4 0.3 -135.7 1 -1.9 1 -1.9 3.2 -1.9 95.8 0 72.4 0.3 95.1 1.2 96 0.8 0.8 5.4 1.2 13.7 1.3 7 0 13.5 0.4 14.6 0.9 1.2 0.5 -3.6 0.9 -12.8 0.9 -8.5 0.1 -15.7 -0.3 -16.8 -0.9 -1.9 -1 -1.9 -3.2 -1.9 -97 0 -52.7 0.3 -96.5 0.6 -97.4 0.6 -1.5 13.7 -1.6 138.4 -1.6 109.2 0 138.1 0.3 138.7 1.3 0.4 0.6 1 44.6 1.3 97.7 0.4 73.3 0.2 96.8 -0.7 97.8 -0.6 0.6 -2.4 1.1 -4 1 -1.5 -0.2 -49.3 -0.4 -106.1 -0.5z"/>
  <path d="M377.8 559.9 c-1.7 -0.9 -1.8 -6.5 -1.8 -93.9 0 -51 0.3 -93.5 0.6 -94.4 0.6 -1.4 13.4 -1.6 135.5 -1.6 132.3 0 134.8 0 135.9 1.9 1.6 3 1.4 186.3 -0.2 187.9 -0.9 0.9 -25.3 1.2 -103.7 1.2 -56.5 0 -103.6 -0.3 -104.9 -0.6 -1.8 -0.5 -2 -0.9 -1.1 -2 0.9 -1.1 0.8 -1.4 -0.5 -1.4 -0.9 0 -1.6 -0.5 -1.6 -1.1 0 -0.5 0.4 -0.8 0.8 -0.5 1 0.6 0.9 -3 -0.1 -4 -1 -1.1 -0.8 -121.7 0.3 -123.4 0.8 -1.3 10.2 -1.5 73.1 -1.7 39.6 -0.1 73 0.2 74.2 0.6 2.1 0.8 2.2 1.5 2.5 17.2 0.4 18 0.4 17.1 0 41.5 -0.2 12.5 -0.7 17.5 -1.6 18.7 -1.3 1.5 -5.9 1.6 -43.9 1.7 -23.4 0 -42.9 0.2 -43.3 0.5 -0.4 0.3 -0.9 -5.5 -0.9 -12.8 -0.1 -9.9 0.2 -13.7 1.1 -14.4 0.9 -0.7 10.8 -1 29.1 -0.9 33.8 0.2 31.5 1.1 31.6 -13.2 0.1 -6.8 -0.3 -10.4 -1.3 -11.7 -1.2 -1.7 -3.7 -1.8 -42.7 -2 -22.8 -0.1 -41.8 -0.3 -42.4 -0.5 -0.5 -0.2 -2.7 0.4 -4.7 1.3 l-3.7 1.7 0 39.5 c0.1 32.1 0.3 39.8 1.5 40.9 1.1 1.2 14.1 1.4 77.3 1.2 41.8 0 76.2 -0.4 76.5 -0.7 1.2 -1.1 0.8 -138.1 -0.4 -139.3 -1.4 -1.4 -207.5 -1.7 -210.5 -0.3 -4.7 2.4 -4.5 -1 -4.6 83.4 -0.1 43.9 -0.4 80.4 -0.6 81.1 -0.6 1.5 -22.9 1.7 -25.5 0.1z"/>
 </g>
 <g fill="#d5dfec">
  <path d="M309 690.3 c0 -0.6 0.9 -3.6 2 -6.9 6.6 -19.2 14.8 -51.9 16.5 -66.5 l0.7 -5.5 -9.4 -9.5 c-37.5 -37.6 -55.4 -82.5 -53.5 -133.9 0.8 -22.7 4.2 -39 12.4 -59.5 10 -25 27.1 -50.6 45.9 -68.6 9 -8.6 23.7 -20.9 25 -20.9 0.6 0 1.7 -0.7 2.4 -1.5 2.1 -2.5 4 -1.8 4 1.5 0 2.7 0.3 3 3 3 2.7 0 3 0.3 3 3.4 0 2.8 -0.8 4 -4.7 7.2 -7.4 5.9 -15 13.1 -24 22.7 -26.9 28.7 -43.3 61.4 -48.4 96.6 -1.6 11.6 -0.6 37 2 48.1 6.2 26.7 19.4 52.6 37.4 73.1 7.2 8.2 21.5 21.7 28.5 26.9 2.6 1.9 3.2 3.1 3.2 6.2 0 3.7 -8.3 33.6 -13.8 49.9 l-3 8.6 3.2 -1.1 c1.7 -0.6 3.6 -1.4 4.1 -1.7 0.6 -0.4 6.6 -3.6 13.5 -7.1 13.5 -7 28.6 -16 36.3 -21.4 5.3 -3.9 9.9 -4.4 15 -1.8 10.4 5.4 45.3 15.6 64.7 18.8 22.8 3.8 57.4 4.8 79.5 2.1 11.4 -1.3 32.4 -5.2 41 -7.5 7.8 -2.2 24.4 -8.1 32.3 -11.6 2 -0.9 5.2 -2.3 6.9 -3 8.4 -3.7 11.5 -5.3 20.8 -10.8 42.1 -24.9 72.2 -59.6 85 -97.9 5.4 -16.3 7 -26.6 6.9 -46.7 -0.1 -24.4 -3.7 -41 -14.2 -64.7 -15 -33.7 -39.2 -61.3 -78.7 -89.6 -1.8 -1.3 -2.5 -2.7 -2.5 -5.2 0 -1.9 0.5 -3.5 1 -3.5 0.6 0 1 -1.1 1 -2.4 0 -3.5 2.3 -5 5.2 -3.5 10.1 5.3 29.1 20.2 43.2 33.9 51.7 50 72.6 118.1 56 182.9 -8 31.3 -22.5 56.2 -47.4 81.2 -7.4 7.4 -17.1 16.2 -21.4 19.5 -4.3 3.2 -9.8 7.4 -12.2 9.2 -2.4 1.7 -4.8 3.2 -5.3 3.2 -1.1 0 -15 7.8 -17.2 9.7 -0.8 0.7 -2.2 1.3 -3.1 1.3 -0.8 0 -2.5 1.1 -3.8 2.5 -1.4 1.5 -3.5 2.5 -5.1 2.5 -1.5 0 -3 0.4 -3.3 0.9 -0.3 0.4 -2.3 1.1 -4.4 1.5 -2.2 0.3 -4.5 1.3 -5.2 2.1 -0.7 0.8 -2.5 1.5 -3.9 1.5 -3.2 0 -14.7 3.7 -17.6 5.7 -1.1 0.7 -3.4 1.3 -5.1 1.3 -1.7 0 -3.7 0.6 -4.3 1.4 -0.7 0.8 -5 1.9 -9.9 2.6 -9.4 1.3 -15.2 2.3 -22.2 3.9 -7.6 1.8 -53.8 2.5 -69 1.2 -30.7 -2.8 -50.7 -7.6 -82.1 -19.7 l-4.6 -1.8 -3.2 2.7 c-1.8 1.5 -3.8 2.7 -4.5 2.7 -0.8 0 -2.5 0.9 -3.9 2 -1.4 1.1 -3.1 2 -3.9 2 -0.7 0 -3 0.9 -5.1 2 -2 1.1 -4.2 2 -4.8 2 -1.4 0 -12 5 -13.9 6.5 -0.8 0.7 -3.9 1.8 -6.9 2.4 -3 0.6 -7.6 2.3 -10.3 3.6 -2.7 1.4 -5.7 2.5 -6.7 2.5 -0.9 0 -2.6 0.7 -3.7 1.5 -1 0.8 -2.8 1.5 -3.8 1.5 -1.1 0 -3.3 0.4 -5 0.9 -1.7 0.5 -7.5 1.9 -12.8 3.1 -5.4 1.2 -10.7 2.4 -11.8 2.7 -1.1 0.3 -2 0.1 -2 -0.4z"/>
 </g>
 <g fill="#fdfefe">
  <path d="M309 690 c0 -0.6 0.6 -2.6 1.4 -4.4 2.7 -6.5 11.6 -39.3 14.1 -52.1 1.4 -7.1 3 -15.1 3.5 -17.7 l1 -4.8 -4.7 -4.2 c-14.3 -13.3 -23.5 -24.6 -35.8 -44.3 -2.2 -3.5 -7.8 -14.6 -9.8 -19.5 -0.8 -1.9 -2.1 -5.1 -3 -7 -3.6 -8.4 -8 -26.8 -9.7 -41 -1.2 -10.2 -1.2 -34.5 0.1 -38 0.5 -1.6 0.7 2.2 0.4 10.3 -1.9 50.9 16.9 97.7 53.7 133.9 l9.9 9.7 -2.1 12.3 c-2.9 17 -7 33.7 -12.5 50.6 -2.6 7.9 -4.5 14.6 -4.3 14.8 0.2 0.2 3.3 -0.4 6.8 -1.2 9.9 -2.3 10.6 -1.1 0.8 1.4 -10.1 2.5 -9.8 2.5 -9.8 1.2z"/>
  <path d="M491 673.4 c-14.9 -1.6 -38.1 -6.1 -39.5 -7.6 -0.7 -0.7 -0.1 -0.8 2 -0.3 22.1 5.3 43.3 7.5 71.8 7.5 15.6 0 23.6 0.3 23.2 1 -0.9 1.5 -42.5 1 -57.5 -0.6z"/>
  <path d="M334.6 663 c3.8 -10.1 10.9 -32.8 14.9 -47.4 l2.7 -9.9 -3.4 -2.6 c-37.4 -29 -61.9 -69.2 -67.8 -111.3 -1.4 -9.6 -1.3 -34.6 0 -43.9 6.7 -44.3 30.5 -83.1 73 -119.2 4.3 -3.6 4.4 -3.7 1.1 -2.1 -1.9 0.9 -4.2 2.5 -5.1 3.6 -1.4 1.8 -1.7 1.9 -2.9 0.4 -1.2 -1.4 -1 -1.8 1.8 -2.7 3.1 -1.1 4 -2.4 2.2 -3.1 -0.6 -0.2 -1.2 -1.5 -1.5 -3 -0.4 -2.3 0.2 -3.4 3.4 -6.1 2.2 -1.8 5.2 -3.9 6.7 -4.7 1.5 -0.8 3.7 -2.2 4.8 -3.1 1.7 -1.5 7.5 -4.8 18 -10.3 8.2 -4.2 22.5 -10.6 26.5 -11.7 2.5 -0.7 5.4 -1.8 6.5 -2.5 5.2 -3.1 34.8 -10.4 50.5 -12.5 5.2 -0.7 10 -1.6 10.5 -2 0.6 -0.4 9.3 -1.2 19.5 -1.9 64.4 -4 126.7 12.8 176 47.5 4.1 2.9 8.5 6.1 9.7 7.2 1.2 1 4.1 3.4 6.5 5.3 17.2 14.1 35.8 35.3 47 53.5 22.8 37 31.9 75.8 27.7 118.1 -1 10.5 -6.4 34.2 -9.3 40.7 -0.7 1.8 -2.8 6.6 -4.5 10.8 -1.8 4.1 -4.5 9.5 -6.2 12 -1.6 2.4 -2.9 4.7 -2.9 5.1 0 1 -7.6 12.1 -13 18.9 -7.3 9.3 -17 19.6 -23.9 25.6 -4.6 4 -2.9 1.9 6 -7.2 23.8 -24.5 38.4 -48.6 46.3 -76.2 5.5 -19.3 6.1 -24.5 6 -50.3 0 -20.5 -0.3 -24.8 -2.3 -34 -6.3 -29.5 -20.4 -59.4 -39.2 -83 -10.3 -13 -29.2 -30.9 -44.1 -41.8 -5.9 -4.3 -7.5 -5.1 -6.2 -3 0.5 0.8 0.2 0.9 -1.1 0.4 -1.5 -0.5 -1.6 -0.4 -0.5 0.9 0.9 1 0.9 2.2 0.2 4.3 -0.9 2.7 -0.6 3 8.5 10.2 11.4 9 28.5 26.5 36.9 37.6 17.8 23.7 28.6 47.1 34.6 74.6 3 13.9 3.2 46.2 0.5 60.8 -7.2 38.2 -29.1 72 -64.9 100.1 -12.1 9.6 -13.4 10.5 -25.3 17.5 -9.3 5.5 -13.4 7.6 -21 10.9 -1.6 0.7 -4.7 2 -6.7 2.9 -7.9 3.5 -24.5 9.4 -32.3 11.6 -8.6 2.3 -29.6 6.2 -41 7.5 -13.9 1.7 -51.1 1.9 -66 0.5 -26.5 -2.6 -61.7 -11.4 -82.6 -20.7 l-5.6 -2.4 -6.4 4.4 c-11 7.5 -43.2 25.8 -49.9 28.3 -0.8 0.3 -3.5 1.5 -6 2.6 -2.5 1.1 -5.7 2.4 -7.1 2.8 l-2.6 0.8 3.3 -8.8z m95.4 -100 c0.8 -0.3 50.1 -0.6 109.4 -0.8 75.7 -0.2 108.4 -0.6 109.3 -1.4 1.1 -0.8 1.3 -18.9 1.3 -95.1 0 -86.1 -0.1 -94.2 -1.7 -95.9 -1.5 -1.7 -7.1 -1.8 -135.5 -1.8 -90.4 0 -134.6 0.3 -135.9 1 -1.9 1 -1.9 3.2 -1.9 95.9 0 74.7 0.3 95.1 1.3 95.9 0.7 0.5 12 1.3 26 1.7 17.3 0.5 24.7 1.1 24.7 1.9 0 0.7 0.3 0.7 0.8 0.1 0.4 -0.5 1.4 -1.2 2.2 -1.5z m237 -240 c0 -0.5 -0.4 -1 -0.8 -1 -1.7 0 -5.7 -4.2 -5.4 -5.6 0.2 -0.8 -0.4 -1.4 -1.3 -1.4 -1 0 -1.3 0.5 -0.9 1.3 0.5 0.8 0.2 0.7 -0.9 -0.2 -1 -0.8 -2 -1.1 -2.3 -0.8 -0.3 0.3 0.7 1.3 2.1 2.4 1.5 1 3.8 2.8 5.3 4 3 2.5 4.2 2.8 4.2 1.3z m-4.8 -12.5 c0.8 0.6 0.5 0.2 -0.5 -0.8 -2.2 -2 -5 -0.7 -4 1.9 0.4 1.2 0.7 1.2 1.8 -0.3 0.9 -1.2 1.7 -1.4 2.7 -0.8z"/>
 </g>
</svg>